<svg width="45" height="45" viewBox="0 0 45 45" fill="none" xmlns="http://www.w3.org/2000/svg">
<circle cx="22.5" cy="22.5" r="21.5" fill="white" stroke="#F7F8FB" stroke-width="2"/>
<g clip-path="url(#clip0_1_938)">
<g clip-path="url(#clip1_1_938)">
<path fill-rule="evenodd" clip-rule="evenodd" d="M24.25 19C24.25 18.5858 24.5858 18.25 25 18.25H25.01C25.4242 18.25 25.76 18.5858 25.76 19C25.76 19.4142 25.4242 19.75 25.01 19.75H25C24.5858 19.75 24.25 19.4142 24.25 19Z" fill="#0F1730"/>
<path fill-rule="evenodd" clip-rule="evenodd" d="M17 15.75C15.7574 15.75 14.75 16.7574 14.75 18V28C14.75 29.2426 15.7574 30.25 17 30.25H27C28.2426 30.25 29.25 29.2426 29.25 28V18C29.25 16.7574 28.2426 15.75 27 15.75H17ZM13.25 18C13.25 15.9289 14.9289 14.25 17 14.25H27C29.0711 14.25 30.75 15.9289 30.75 18V28C30.75 30.0711 29.0711 31.75 27 31.75H17C14.9289 31.75 13.25 30.0711 13.25 28V18Z" fill="#0F1730"/>
<path fill-rule="evenodd" clip-rule="evenodd" d="M18.5249 22.5358L14.5303 26.5303C14.2374 26.8232 13.7626 26.8232 13.4697 26.5303C13.1768 26.2374 13.1768 25.7626 13.4697 25.4697L17.4697 21.4697L17.48 21.4596C18.0458 20.9151 18.7415 20.5801 19.5 20.5801C20.2585 20.5801 20.9542 20.9151 21.52 21.4596L21.5303 21.4697L26.5303 26.4697C26.8232 26.7626 26.8232 27.2374 26.5303 27.5303C26.2374 27.8232 25.7626 27.8232 25.4697 27.5303L20.4751 22.5358C20.1305 22.206 19.7933 22.0801 19.5 22.0801C19.2067 22.0801 18.8695 22.206 18.5249 22.5358Z" fill="#0F1730"/>
<path fill-rule="evenodd" clip-rule="evenodd" d="M25.5249 24.5358L24.5303 25.5303C24.2374 25.8232 23.7626 25.8232 23.4697 25.5303C23.1768 25.2374 23.1768 24.7626 23.4697 24.4697L24.4697 23.4697L24.48 23.4596C25.0458 22.9151 25.7415 22.5801 26.5 22.5801C27.2585 22.5801 27.9542 22.9151 28.52 23.4596L28.5303 23.4697L30.5303 25.4697C30.8232 25.7626 30.8232 26.2374 30.5303 26.5303C30.2374 26.8232 29.7626 26.8232 29.4697 26.5303L27.4751 24.5358C27.1305 24.206 26.7933 24.0801 26.5 24.0801C26.2067 24.0801 25.8695 24.206 25.5249 24.5358Z" fill="#0F1730"/>
</g>
</g>
<defs>
<clipPath id="clip0_1_938">
<rect width="24" height="24" fill="white" transform="translate(10 11)"/>
</clipPath>
<clipPath id="clip1_1_938">
<rect width="24" height="24" fill="white" transform="translate(10 11)"/>
</clipPath>
</defs>
</svg>
